# xmcd CD database file
#
# Track frame offsets:
#	150
#	13845
#	27657
#	44147
#	56800
#	75742
#	92350
#	129822
#	143422
#	161042
#
# Disc length: 2334 seconds
#
# Revision: 0
# Processed by: cddbd v1.5.1PL2 Copyright (c) Steve Scherf et al.
# Submitted via: CDex 1.51
#
DISCID=7f091c0a
DTITLE=Various Artist - １９７１ フォークジャンボリー Vol.1 [Disc 1]
DYEAR=2006
DGENRE=Folk
TTITLE0=野沢享司 - アルバートが唄ってる
TTITLE1=なぎらけんいち - 東京節
TTITLE2=加川良 - 教訓１
TTITLE3=金延幸子 - 時にまかせて
TTITLE4=遠藤賢司 - 待ちすぎた僕はとても疲れてしまった
TTITLE5=遠藤賢司 - ミルクティー
TTITLE6=遠藤賢司 - 早く帰ろう
TTITLE7=はっぴいえんど - 抱きしめたい
TTITLE8=はっぴいえんど - 朝
TTITLE9=はっぴいえんど - はいからはくち
EXTD=YEAR: 2006
EXTT0=
EXTT1=
EXTT2=
EXTT3=
EXTT4=
EXTT5=
EXTT6=
EXTT7=
EXTT8=
EXTT9=
PLAYORDER=
